%TF.GenerationSoftware,KiCad,Pcbnew,(7.0.0)*%
%TF.CreationDate,2023-12-29T11:59:30-08:00*%
%TF.ProjectId,MiniBadgeUSBmount,4d696e69-4261-4646-9765-5553426d6f75,rev?*%
%TF.SameCoordinates,Original*%
%TF.FileFunction,Soldermask,Top*%
%TF.FilePolarity,Negative*%
%FSLAX46Y46*%
G04 Gerber Fmt 4.6, Leading zero omitted, Abs format (unit mm)*
G04 Created by KiCad (PCBNEW (7.0.0)) date 2023-12-29 11:59:30*
%MOMM*%
%LPD*%
G01*
G04 APERTURE LIST*
%TA.AperFunction,Profile*%
%ADD10C,0.040640*%
%TD*%
%ADD11C,1.750000*%
%ADD12R,8.000000X1.900000*%
%ADD13R,7.500000X2.000000*%
%ADD14C,1.600000*%
%ADD15O,1.600000X1.600000*%
%ADD16C,2.000000*%
G04 APERTURE END LIST*
D10*
%TO.C,J1*%
X117530000Y-112870000D02*
X129530000Y-112870000D01*
X129530000Y-124870000D02*
X117530000Y-124870000D01*
X117530000Y-124870000D02*
X117530000Y-112870000D01*
%TD*%
D11*
%TO.C,MB1*%
X157870000Y-109555000D03*
X160410000Y-109555000D03*
X162950000Y-109555000D03*
X165490000Y-109555000D03*
X168030000Y-109555000D03*
X170570000Y-109555000D03*
X173110000Y-109555000D03*
X175650000Y-109555000D03*
X157870000Y-127335000D03*
X160410000Y-127335000D03*
X162950000Y-127335000D03*
X165490000Y-127335000D03*
X168030000Y-127335000D03*
X170570000Y-127335000D03*
X173110000Y-127335000D03*
X175650000Y-127335000D03*
%TD*%
%TO.C,MB2*%
X179730000Y-109660000D03*
X182270000Y-109660000D03*
X184810000Y-109660000D03*
X187350000Y-109660000D03*
X189890000Y-109660000D03*
X192430000Y-109660000D03*
X194970000Y-109660000D03*
X197510000Y-109660000D03*
X179730000Y-127440000D03*
X182270000Y-127440000D03*
X184810000Y-127440000D03*
X187350000Y-127440000D03*
X189890000Y-127440000D03*
X192430000Y-127440000D03*
X194970000Y-127440000D03*
X197510000Y-127440000D03*
%TD*%
D12*
%TO.C,J1*%
X122429999Y-122679999D03*
D13*
X122679999Y-120169999D03*
X122679999Y-117569999D03*
D12*
X122429999Y-115059999D03*
%TD*%
D14*
%TO.C,R1*%
X137080000Y-110880000D03*
D15*
X147239999Y-110879999D03*
%TD*%
D14*
%TO.C,*%
X131270000Y-113410000D03*
%TD*%
%TO.C,R2*%
X136990000Y-126810000D03*
D15*
X147149999Y-126809999D03*
%TD*%
D14*
%TO.C,*%
X137080000Y-114300000D03*
%TD*%
D16*
%TO.C,C1*%
X131130000Y-118800000D03*
X136130000Y-118800000D03*
%TD*%
M02*
