%TF.GenerationSoftware,KiCad,Pcbnew,(7.0.0)*%
%TF.CreationDate,2023-12-29T11:59:30-08:00*%
%TF.ProjectId,MiniBadgeUSBmount,4d696e69-4261-4646-9765-5553426d6f75,rev?*%
%TF.SameCoordinates,Original*%
%TF.FileFunction,Soldermask,Bot*%
%TF.FilePolarity,Negative*%
%FSLAX46Y46*%
G04 Gerber Fmt 4.6, Leading zero omitted, Abs format (unit mm)*
G04 Created by KiCad (PCBNEW (7.0.0)) date 2023-12-29 11:59:30*
%MOMM*%
%LPD*%
G01*
G04 APERTURE LIST*
%TA.AperFunction,Profile*%
%ADD10C,0.040640*%
%TD*%
%ADD11C,0.000000*%
%ADD12C,1.750000*%
%ADD13C,1.600000*%
%ADD14O,1.600000X1.600000*%
%ADD15C,2.000000*%
G04 APERTURE END LIST*
D10*
%TO.C,J1*%
X117530000Y-112870000D02*
X129530000Y-112870000D01*
X129530000Y-124870000D02*
X117530000Y-124870000D01*
X117530000Y-124870000D02*
X117530000Y-112870000D01*
D11*
G36*
X189592528Y-115989474D02*
G01*
X189635412Y-115992294D01*
X189677528Y-115997105D01*
X189718833Y-116003864D01*
X189759283Y-116012527D01*
X189798835Y-116023051D01*
X189837445Y-116035393D01*
X189875069Y-116049507D01*
X189911663Y-116065351D01*
X189947184Y-116082882D01*
X189981588Y-116102055D01*
X190014831Y-116122826D01*
X190046870Y-116145153D01*
X190077660Y-116168991D01*
X190107159Y-116194297D01*
X190135322Y-116221027D01*
X190162105Y-116249138D01*
X190187466Y-116278586D01*
X190211359Y-116309327D01*
X190233743Y-116341317D01*
X190254571Y-116374514D01*
X190273802Y-116408872D01*
X190291391Y-116444350D01*
X190307295Y-116480902D01*
X190321470Y-116518486D01*
X190333871Y-116557057D01*
X190344456Y-116596572D01*
X190353181Y-116636988D01*
X190360001Y-116678260D01*
X190364874Y-116720346D01*
X190367756Y-116763201D01*
X190368602Y-116806782D01*
X190367405Y-116850760D01*
X190364214Y-116893989D01*
X190359071Y-116936427D01*
X190352019Y-116978031D01*
X190343101Y-117018757D01*
X190332358Y-117058565D01*
X190319832Y-117097410D01*
X190305567Y-117135249D01*
X190289605Y-117172042D01*
X190271987Y-117207744D01*
X190252757Y-117242313D01*
X190231957Y-117275707D01*
X190209629Y-117307882D01*
X190185815Y-117338796D01*
X190160558Y-117368406D01*
X190133900Y-117396670D01*
X190105884Y-117423545D01*
X190076552Y-117448988D01*
X190045946Y-117472957D01*
X190014108Y-117495409D01*
X189981082Y-117516301D01*
X189946909Y-117535590D01*
X189911632Y-117553234D01*
X189875293Y-117569191D01*
X189837934Y-117583417D01*
X189799598Y-117595870D01*
X189760328Y-117606507D01*
X189720165Y-117615285D01*
X189679152Y-117622162D01*
X189637331Y-117627095D01*
X189594745Y-117630042D01*
X189551436Y-117630959D01*
X189509049Y-117629771D01*
X189467250Y-117626466D01*
X189426088Y-117621095D01*
X189385614Y-117613710D01*
X189345878Y-117604360D01*
X189306931Y-117593099D01*
X189268823Y-117579978D01*
X189231605Y-117565047D01*
X189195325Y-117548358D01*
X189160036Y-117529963D01*
X189125786Y-117509912D01*
X189092627Y-117488258D01*
X189060609Y-117465052D01*
X189029781Y-117440345D01*
X189000195Y-117414188D01*
X188971900Y-117386633D01*
X188944946Y-117357731D01*
X188919385Y-117327533D01*
X188895267Y-117296092D01*
X188872641Y-117263458D01*
X188851557Y-117229683D01*
X188832068Y-117194817D01*
X188814221Y-117158913D01*
X188798068Y-117122022D01*
X188783660Y-117084196D01*
X188771046Y-117045484D01*
X188760276Y-117005940D01*
X188751401Y-116965614D01*
X188744472Y-116924558D01*
X188739538Y-116882823D01*
X188736650Y-116840460D01*
X188735858Y-116797521D01*
X188737168Y-116755751D01*
X188740520Y-116714560D01*
X188745865Y-116673997D01*
X188753154Y-116634111D01*
X188762340Y-116594949D01*
X188773372Y-116556560D01*
X188786202Y-116518994D01*
X188800782Y-116482297D01*
X188817063Y-116446520D01*
X188834996Y-116411709D01*
X188854533Y-116377915D01*
X188875624Y-116345184D01*
X188898221Y-116313566D01*
X188922275Y-116283109D01*
X188947738Y-116253862D01*
X188974561Y-116225873D01*
X189002696Y-116199190D01*
X189032092Y-116173862D01*
X189062702Y-116149938D01*
X189094478Y-116127465D01*
X189127369Y-116106493D01*
X189161329Y-116087070D01*
X189196307Y-116069245D01*
X189232255Y-116053065D01*
X189269125Y-116038579D01*
X189306867Y-116025836D01*
X189345434Y-116014884D01*
X189384775Y-116005772D01*
X189424844Y-115998548D01*
X189465590Y-115993261D01*
X189506966Y-115989959D01*
X189548922Y-115988690D01*
X189592528Y-115989474D01*
G37*
G36*
X195105179Y-111608178D02*
G01*
X195271585Y-111615812D01*
X195436033Y-111630014D01*
X195596878Y-111651440D01*
X195752475Y-111680744D01*
X195935781Y-111723588D01*
X196116181Y-111771281D01*
X196293411Y-111824239D01*
X196467206Y-111882876D01*
X196637302Y-111947604D01*
X196803434Y-112018838D01*
X196965339Y-112096991D01*
X197122752Y-112182477D01*
X197275409Y-112275710D01*
X197423045Y-112377104D01*
X197565396Y-112487072D01*
X197702198Y-112606027D01*
X197833186Y-112734385D01*
X197958097Y-112872558D01*
X198076665Y-113020961D01*
X198133488Y-113099127D01*
X198188626Y-113180006D01*
X198256947Y-113287190D01*
X198321058Y-113395620D01*
X198380648Y-113505294D01*
X198435404Y-113616213D01*
X198485015Y-113728375D01*
X198529168Y-113841779D01*
X198567552Y-113956426D01*
X198599855Y-114072313D01*
X198625764Y-114189441D01*
X198644968Y-114307808D01*
X198657154Y-114427413D01*
X198662011Y-114548257D01*
X198659227Y-114670338D01*
X198648489Y-114793655D01*
X198629486Y-114918208D01*
X198601905Y-115043995D01*
X198577939Y-115128796D01*
X198549623Y-115211277D01*
X198517109Y-115291367D01*
X198480549Y-115368991D01*
X198440095Y-115444079D01*
X198395899Y-115516556D01*
X198348112Y-115586350D01*
X198296886Y-115653389D01*
X198242374Y-115717598D01*
X198184726Y-115778907D01*
X198124095Y-115837242D01*
X198060632Y-115892529D01*
X197994489Y-115944698D01*
X197925818Y-115993674D01*
X197854771Y-116039384D01*
X197781499Y-116081757D01*
X197706154Y-116120719D01*
X197628889Y-116156198D01*
X197549854Y-116188121D01*
X197469202Y-116216415D01*
X197387084Y-116241007D01*
X197303653Y-116261824D01*
X197219059Y-116278794D01*
X197133456Y-116291845D01*
X197046993Y-116300902D01*
X196959825Y-116305894D01*
X196872101Y-116306748D01*
X196783974Y-116303390D01*
X196695595Y-116295749D01*
X196607118Y-116283751D01*
X196518692Y-116267324D01*
X196430470Y-116246395D01*
X196361586Y-116226566D01*
X196294380Y-116203860D01*
X196228918Y-116178374D01*
X196165268Y-116150211D01*
X196103496Y-116119470D01*
X196043669Y-116086252D01*
X195985853Y-116050656D01*
X195930114Y-116012784D01*
X195876520Y-115972735D01*
X195825137Y-115930609D01*
X195776032Y-115886508D01*
X195729271Y-115840531D01*
X195684921Y-115792778D01*
X195643049Y-115743350D01*
X195603720Y-115692348D01*
X195567003Y-115639870D01*
X195532962Y-115586018D01*
X195501666Y-115530893D01*
X195473180Y-115474593D01*
X195447572Y-115417220D01*
X195424907Y-115358874D01*
X195405253Y-115299655D01*
X195388675Y-115239663D01*
X195375242Y-115178999D01*
X195365018Y-115117763D01*
X195358072Y-115056055D01*
X195354469Y-114993976D01*
X195354276Y-114931625D01*
X195357560Y-114869104D01*
X195364387Y-114806511D01*
X195374824Y-114743949D01*
X195388938Y-114681516D01*
X195406518Y-114619982D01*
X195427365Y-114559620D01*
X195451380Y-114500534D01*
X195478460Y-114442826D01*
X195508504Y-114386598D01*
X195541413Y-114331954D01*
X195577084Y-114278997D01*
X195615417Y-114227828D01*
X195656311Y-114178552D01*
X195699664Y-114131270D01*
X195745376Y-114086086D01*
X195793346Y-114043102D01*
X195843472Y-114002421D01*
X195895654Y-113964146D01*
X195949791Y-113928379D01*
X196005781Y-113895224D01*
X196063524Y-113864783D01*
X196122918Y-113837159D01*
X196183863Y-113812455D01*
X196246257Y-113790773D01*
X196310001Y-113772217D01*
X196374991Y-113756889D01*
X196441128Y-113744891D01*
X196508311Y-113736327D01*
X196576438Y-113731300D01*
X196645409Y-113729912D01*
X196715122Y-113732265D01*
X196785477Y-113738464D01*
X196856372Y-113748610D01*
X196927707Y-113762806D01*
X196999380Y-113781156D01*
X197071291Y-113803761D01*
X197112025Y-113816812D01*
X197153706Y-113828299D01*
X197196104Y-113838096D01*
X197217499Y-113842322D01*
X197238987Y-113846078D01*
X197260538Y-113849349D01*
X197282124Y-113852119D01*
X197303716Y-113854372D01*
X197325285Y-113856093D01*
X197346801Y-113857266D01*
X197368237Y-113857875D01*
X197389563Y-113857905D01*
X197410751Y-113857339D01*
X197435376Y-113855655D01*
X197459207Y-113852712D01*
X197482225Y-113848548D01*
X197504412Y-113843200D01*
X197525748Y-113836706D01*
X197546215Y-113829104D01*
X197565794Y-113820432D01*
X197584467Y-113810727D01*
X197602214Y-113800027D01*
X197619016Y-113788370D01*
X197634856Y-113775794D01*
X197649713Y-113762336D01*
X197663570Y-113748034D01*
X197676408Y-113732926D01*
X197688207Y-113717049D01*
X197698949Y-113700441D01*
X197708615Y-113683141D01*
X197717186Y-113665185D01*
X197724644Y-113646612D01*
X197730969Y-113627459D01*
X197736144Y-113607764D01*
X197740148Y-113587565D01*
X197742964Y-113566899D01*
X197744573Y-113545805D01*
X197744955Y-113524319D01*
X197744092Y-113502480D01*
X197741965Y-113480326D01*
X197738555Y-113457893D01*
X197733844Y-113435221D01*
X197727813Y-113412346D01*
X197720443Y-113389307D01*
X197711715Y-113366140D01*
X197672625Y-113278547D01*
X197626342Y-113190405D01*
X197573306Y-113102329D01*
X197513959Y-113014931D01*
X197448741Y-112928826D01*
X197378093Y-112844628D01*
X197302455Y-112762951D01*
X197222269Y-112684408D01*
X197137974Y-112609615D01*
X197050011Y-112539183D01*
X196958821Y-112473728D01*
X196864845Y-112413864D01*
X196768524Y-112360203D01*
X196670298Y-112313361D01*
X196570607Y-112273951D01*
X196469893Y-112242587D01*
X196384089Y-112213066D01*
X196282635Y-112182661D01*
X196147300Y-112147602D01*
X195981951Y-112112221D01*
X195889230Y-112095763D01*
X195790455Y-112080849D01*
X195686110Y-112068020D01*
X195576679Y-112057817D01*
X195462643Y-112050783D01*
X195344488Y-112047458D01*
X195274196Y-112047599D01*
X195204669Y-112049557D01*
X195135926Y-112053331D01*
X195067984Y-112058918D01*
X195000861Y-112066315D01*
X194934576Y-112075521D01*
X194869145Y-112086533D01*
X194804589Y-112099349D01*
X194740924Y-112113967D01*
X194678168Y-112130383D01*
X194616340Y-112148596D01*
X194555457Y-112168604D01*
X194495537Y-112190404D01*
X194436600Y-112213993D01*
X194378661Y-112239371D01*
X194321741Y-112266533D01*
X194223280Y-112319065D01*
X194128189Y-112377005D01*
X194036569Y-112440291D01*
X193948521Y-112508860D01*
X193864148Y-112582652D01*
X193783550Y-112661604D01*
X193706830Y-112745655D01*
X193634089Y-112834742D01*
X193565428Y-112928804D01*
X193500949Y-113027780D01*
X193440753Y-113131606D01*
X193384942Y-113240222D01*
X193333618Y-113353566D01*
X193286882Y-113471575D01*
X193244836Y-113594189D01*
X193207581Y-113721344D01*
X193175589Y-113847528D01*
X193147421Y-113974091D01*
X193122987Y-114101001D01*
X193102196Y-114228224D01*
X193084959Y-114355727D01*
X193071187Y-114483479D01*
X193060789Y-114611445D01*
X193053676Y-114739593D01*
X193049758Y-114867890D01*
X193048946Y-114996302D01*
X193051149Y-115124798D01*
X193056278Y-115253343D01*
X193074956Y-115510453D01*
X193104261Y-115767367D01*
X193170375Y-116184003D01*
X193255462Y-116589976D01*
X193359226Y-116985386D01*
X193481373Y-117370336D01*
X193621608Y-117744927D01*
X193779636Y-118109261D01*
X193955163Y-118463438D01*
X194147893Y-118807561D01*
X194357533Y-119141731D01*
X194583787Y-119466050D01*
X194826360Y-119780619D01*
X195084958Y-120085540D01*
X195359287Y-120380914D01*
X195649050Y-120666843D01*
X195953955Y-120943428D01*
X196273705Y-121210771D01*
X196589744Y-121458065D01*
X196911505Y-121698264D01*
X197237815Y-121932804D01*
X197567500Y-122163123D01*
X198896519Y-123070925D01*
X198919742Y-123087852D01*
X198940856Y-123104954D01*
X198959805Y-123122237D01*
X198968450Y-123130950D01*
X198976533Y-123139710D01*
X198984045Y-123148519D01*
X198990982Y-123157379D01*
X198997334Y-123166289D01*
X199003096Y-123175251D01*
X199008260Y-123184265D01*
X199012820Y-123193333D01*
X199016767Y-123202456D01*
X199020096Y-123211633D01*
X199022798Y-123220867D01*
X199024868Y-123230158D01*
X199026298Y-123239507D01*
X199027081Y-123248915D01*
X199027209Y-123258383D01*
X199026676Y-123267911D01*
X199025476Y-123277501D01*
X199023599Y-123287153D01*
X199021041Y-123296869D01*
X199017793Y-123306649D01*
X199013849Y-123316494D01*
X199009201Y-123326405D01*
X199003843Y-123336384D01*
X198997767Y-123346430D01*
X198990967Y-123356544D01*
X198983434Y-123366729D01*
X198979783Y-123370922D01*
X198975523Y-123374893D01*
X198970689Y-123378643D01*
X198965316Y-123382170D01*
X198953089Y-123388553D01*
X198939117Y-123394039D01*
X198923675Y-123398622D01*
X198907039Y-123402299D01*
X198889484Y-123405064D01*
X198871284Y-123406912D01*
X198852716Y-123407840D01*
X198834053Y-123407843D01*
X198815572Y-123406915D01*
X198797548Y-123405052D01*
X198780255Y-123402250D01*
X198763970Y-123398504D01*
X198748966Y-123393809D01*
X198735520Y-123388161D01*
X198164722Y-123106240D01*
X197597466Y-122818055D01*
X197034728Y-122521917D01*
X196477483Y-122216138D01*
X195926706Y-121899030D01*
X195383371Y-121568903D01*
X194848455Y-121224071D01*
X194322932Y-120862844D01*
X194045275Y-120658409D01*
X193777221Y-120446473D01*
X193519017Y-120226934D01*
X193270907Y-119999691D01*
X193033138Y-119764640D01*
X192805955Y-119521680D01*
X192589603Y-119270707D01*
X192384330Y-119011621D01*
X192190379Y-118744318D01*
X192007998Y-118468696D01*
X191837432Y-118184653D01*
X191678926Y-117892086D01*
X191532726Y-117590894D01*
X191399078Y-117280973D01*
X191278228Y-116962222D01*
X191170422Y-116634538D01*
X191114978Y-116438761D01*
X191068212Y-116244013D01*
X191030093Y-116050477D01*
X191000593Y-115858337D01*
X190979681Y-115667776D01*
X190967329Y-115478978D01*
X190963506Y-115292127D01*
X190968185Y-115107407D01*
X190981334Y-114925000D01*
X191002926Y-114745091D01*
X191032929Y-114567863D01*
X191071316Y-114393501D01*
X191118056Y-114222186D01*
X191173120Y-114054104D01*
X191236479Y-113889438D01*
X191308104Y-113728371D01*
X191387964Y-113571088D01*
X191476031Y-113417771D01*
X191572275Y-113268604D01*
X191676667Y-113123772D01*
X191789177Y-112983457D01*
X191909776Y-112847844D01*
X192038434Y-112717115D01*
X192175123Y-112591455D01*
X192319812Y-112471047D01*
X192472472Y-112356075D01*
X192633075Y-112246722D01*
X192801589Y-112143173D01*
X192977987Y-112045610D01*
X193162239Y-111954218D01*
X193354314Y-111869180D01*
X193554185Y-111790679D01*
X193695214Y-111749123D01*
X193900775Y-111705041D01*
X194157709Y-111663668D01*
X194452859Y-111630242D01*
X194610653Y-111618146D01*
X194773068Y-111610000D01*
X194938458Y-111606459D01*
X195105179Y-111608178D01*
G37*
G36*
X189590622Y-112730753D02*
G01*
X189633813Y-112733434D01*
X189676205Y-112738083D01*
X189717754Y-112744658D01*
X189758420Y-112753118D01*
X189798160Y-112763421D01*
X189836932Y-112775525D01*
X189874694Y-112789390D01*
X189911404Y-112804973D01*
X189947019Y-112822234D01*
X189981498Y-112841129D01*
X190014798Y-112861618D01*
X190046877Y-112883660D01*
X190077694Y-112907212D01*
X190107206Y-112932233D01*
X190135371Y-112958682D01*
X190162147Y-112986517D01*
X190187492Y-113015696D01*
X190211363Y-113046178D01*
X190233719Y-113077921D01*
X190254518Y-113110884D01*
X190273717Y-113145025D01*
X190291274Y-113180303D01*
X190307148Y-113216676D01*
X190321296Y-113254102D01*
X190333675Y-113292540D01*
X190344245Y-113331948D01*
X190352963Y-113372285D01*
X190359786Y-113413509D01*
X190364673Y-113455579D01*
X190367581Y-113498452D01*
X190368469Y-113542088D01*
X190367332Y-113586176D01*
X190364221Y-113629487D01*
X190359176Y-113671981D01*
X190352238Y-113713617D01*
X190343447Y-113754354D01*
X190332844Y-113794151D01*
X190320468Y-113832967D01*
X190306362Y-113870761D01*
X190290564Y-113907493D01*
X190273116Y-113943121D01*
X190254058Y-113977605D01*
X190233430Y-114010904D01*
X190211273Y-114042977D01*
X190187628Y-114073783D01*
X190162534Y-114103281D01*
X190136032Y-114131431D01*
X190108163Y-114158192D01*
X190078967Y-114183522D01*
X190048485Y-114207380D01*
X190016756Y-114229727D01*
X189983822Y-114250521D01*
X189949723Y-114269721D01*
X189914500Y-114287287D01*
X189878192Y-114303177D01*
X189840840Y-114317350D01*
X189802485Y-114329767D01*
X189763168Y-114340385D01*
X189722928Y-114349164D01*
X189681806Y-114356064D01*
X189639842Y-114361043D01*
X189597078Y-114364060D01*
X189553553Y-114365075D01*
X189510992Y-114364011D01*
X189469041Y-114360854D01*
X189427751Y-114355652D01*
X189387168Y-114348455D01*
X189347342Y-114339312D01*
X189308321Y-114328273D01*
X189270155Y-114315387D01*
X189232892Y-114300703D01*
X189196581Y-114284270D01*
X189161270Y-114266139D01*
X189127008Y-114246358D01*
X189093844Y-114224976D01*
X189061826Y-114202044D01*
X189031004Y-114177611D01*
X189001425Y-114151725D01*
X188973140Y-114124436D01*
X188946195Y-114095794D01*
X188920641Y-114065848D01*
X188896526Y-114034648D01*
X188873898Y-114002242D01*
X188852806Y-113968680D01*
X188833299Y-113934011D01*
X188815426Y-113898286D01*
X188799236Y-113861552D01*
X188784776Y-113823860D01*
X188772097Y-113785259D01*
X188761245Y-113745798D01*
X188752271Y-113705527D01*
X188745223Y-113664495D01*
X188740150Y-113622751D01*
X188737100Y-113580345D01*
X188736122Y-113537326D01*
X188737233Y-113495621D01*
X188740385Y-113454503D01*
X188745531Y-113414019D01*
X188752621Y-113374216D01*
X188761610Y-113335143D01*
X188772448Y-113296848D01*
X188785088Y-113259376D01*
X188799482Y-113222778D01*
X188815582Y-113187099D01*
X188833340Y-113152388D01*
X188852708Y-113118693D01*
X188873639Y-113086060D01*
X188896085Y-113054539D01*
X188919998Y-113024176D01*
X188945329Y-112995019D01*
X188972031Y-112967116D01*
X189000057Y-112940514D01*
X189029358Y-112915262D01*
X189059886Y-112891406D01*
X189091594Y-112868995D01*
X189124434Y-112848076D01*
X189158357Y-112828696D01*
X189193317Y-112810905D01*
X189229264Y-112794748D01*
X189266152Y-112780274D01*
X189303932Y-112767531D01*
X189342557Y-112756566D01*
X189381978Y-112747427D01*
X189422148Y-112740161D01*
X189463019Y-112734817D01*
X189504544Y-112731441D01*
X189546673Y-112730082D01*
X189590622Y-112730753D01*
G37*
G36*
X153995264Y-117216335D02*
G01*
X154076258Y-117208121D01*
X154467747Y-117180653D01*
X154851755Y-117169525D01*
X155222181Y-117174471D01*
X155740022Y-117207752D01*
X156231763Y-117267641D01*
X156698462Y-117351014D01*
X157141175Y-117454752D01*
X157560961Y-117575732D01*
X157958875Y-117710832D01*
X158335976Y-117856933D01*
X158693320Y-118010911D01*
X160063413Y-118698181D01*
X160413053Y-118677513D01*
X161070706Y-118639352D01*
X161413531Y-118625727D01*
X161700408Y-118614326D01*
X162309332Y-118606368D01*
X162904652Y-118619413D01*
X163199454Y-118635040D01*
X163493545Y-118657394D01*
X163787822Y-118686966D01*
X164083184Y-118724247D01*
X164380525Y-118769729D01*
X164680743Y-118823905D01*
X164984736Y-118887265D01*
X165293399Y-118960302D01*
X165405715Y-118990105D01*
X165512603Y-119021687D01*
X165613724Y-119054736D01*
X165708744Y-119088939D01*
X165797322Y-119123986D01*
X165879124Y-119159564D01*
X165953810Y-119195362D01*
X166021045Y-119231068D01*
X166080490Y-119266370D01*
X166131808Y-119300957D01*
X166174663Y-119334516D01*
X166208716Y-119366737D01*
X166233630Y-119397308D01*
X166249068Y-119425916D01*
X166253129Y-119439387D01*
X166254694Y-119452250D01*
X166253721Y-119464467D01*
X166250169Y-119475999D01*
X166247910Y-119480908D01*
X166245388Y-119485808D01*
X166242577Y-119490690D01*
X166239455Y-119495546D01*
X166235997Y-119500369D01*
X166232181Y-119505151D01*
X166227981Y-119509885D01*
X166223375Y-119514562D01*
X166218338Y-119519174D01*
X166212848Y-119523715D01*
X166206879Y-119528176D01*
X166200409Y-119532550D01*
X166193414Y-119536828D01*
X166185870Y-119541004D01*
X166177753Y-119545069D01*
X166169039Y-119549016D01*
X166020087Y-119606306D01*
X165852356Y-119658539D01*
X165668190Y-119705843D01*
X165469932Y-119748348D01*
X165259925Y-119786184D01*
X165040513Y-119819481D01*
X164814039Y-119848367D01*
X164582846Y-119872972D01*
X164115676Y-119909858D01*
X163657751Y-119931175D01*
X163227815Y-119937959D01*
X162844616Y-119931245D01*
X162112102Y-119900754D01*
X161737195Y-119875358D01*
X161354456Y-119836594D01*
X161159667Y-119810651D01*
X160962340Y-119779510D01*
X160762281Y-119742550D01*
X160559297Y-119699153D01*
X160353195Y-119648701D01*
X160143781Y-119590574D01*
X159930862Y-119524152D01*
X159714245Y-119448818D01*
X159521560Y-119372105D01*
X159289321Y-119270125D01*
X159028842Y-119149366D01*
X158751435Y-119016317D01*
X158601845Y-118942366D01*
X156514762Y-119067435D01*
X156517984Y-119077449D01*
X156529680Y-119145685D01*
X156531252Y-119215527D01*
X156522298Y-119286898D01*
X156502417Y-119359722D01*
X156483345Y-119407735D01*
X156459483Y-119455444D01*
X156430825Y-119502762D01*
X156397362Y-119549600D01*
X156359087Y-119595869D01*
X156315993Y-119641483D01*
X156268073Y-119686352D01*
X156215318Y-119730388D01*
X156157721Y-119773503D01*
X156095274Y-119815609D01*
X156027972Y-119856617D01*
X155955805Y-119896440D01*
X155878766Y-119934989D01*
X155796848Y-119972176D01*
X155710043Y-120007912D01*
X155618344Y-120042111D01*
X155521744Y-120074682D01*
X155420235Y-120105539D01*
X155313808Y-120134592D01*
X155202458Y-120161754D01*
X155086177Y-120186936D01*
X154964956Y-120210051D01*
X154838789Y-120231010D01*
X154707668Y-120249724D01*
X154571585Y-120266106D01*
X154430533Y-120280067D01*
X154284505Y-120291520D01*
X154133493Y-120300375D01*
X153977490Y-120306545D01*
X153816488Y-120309941D01*
X153650479Y-120310476D01*
X153479457Y-120308061D01*
X153186291Y-120294972D01*
X152902684Y-120269398D01*
X152630120Y-120231713D01*
X152370079Y-120182292D01*
X152124046Y-120121508D01*
X151893501Y-120049737D01*
X151679927Y-119967353D01*
X151484807Y-119874730D01*
X151309623Y-119772243D01*
X151155856Y-119660265D01*
X151024990Y-119539172D01*
X150968607Y-119475325D01*
X150918506Y-119409338D01*
X150914464Y-119403032D01*
X148779748Y-119530955D01*
X148460178Y-119546041D01*
X148164269Y-119548709D01*
X147891386Y-119539771D01*
X147640889Y-119520042D01*
X147412143Y-119490335D01*
X147204508Y-119451462D01*
X147017350Y-119404237D01*
X146941841Y-119379523D01*
X151306766Y-119379523D01*
X151313672Y-119388445D01*
X151361068Y-119440694D01*
X151412844Y-119489900D01*
X151468834Y-119536134D01*
X151528877Y-119579465D01*
X151592808Y-119619964D01*
X151660463Y-119657702D01*
X151731679Y-119692749D01*
X151806292Y-119725174D01*
X151884138Y-119755049D01*
X151965053Y-119782444D01*
X152048875Y-119807428D01*
X152135438Y-119830073D01*
X152224579Y-119850448D01*
X152316136Y-119868625D01*
X152409943Y-119884673D01*
X152603655Y-119910663D01*
X152804406Y-119928983D01*
X153010886Y-119940194D01*
X153221785Y-119944859D01*
X153393452Y-119943232D01*
X153558161Y-119935946D01*
X153715761Y-119923295D01*
X153866099Y-119905574D01*
X154009025Y-119883075D01*
X154144386Y-119856094D01*
X154272030Y-119824925D01*
X154391806Y-119789860D01*
X154503562Y-119751196D01*
X154607147Y-119709225D01*
X154702407Y-119664242D01*
X154789193Y-119616541D01*
X154867352Y-119566416D01*
X154936732Y-119514161D01*
X154997181Y-119460070D01*
X155048548Y-119404437D01*
X155090682Y-119347557D01*
X155123429Y-119289723D01*
X155146639Y-119231229D01*
X155160160Y-119172371D01*
X155161649Y-119148520D01*
X151306766Y-119379523D01*
X146941841Y-119379523D01*
X146850028Y-119349473D01*
X146701907Y-119287984D01*
X146572349Y-119220582D01*
X146460717Y-119148082D01*
X146366373Y-119071296D01*
X146288679Y-118991038D01*
X146227000Y-118908120D01*
X146180696Y-118823356D01*
X146149130Y-118737560D01*
X146130119Y-118646634D01*
X146125307Y-118559667D01*
X146133972Y-118476677D01*
X146155388Y-118397678D01*
X146188832Y-118322688D01*
X146233582Y-118251723D01*
X146288913Y-118184799D01*
X146354101Y-118121932D01*
X146428423Y-118063140D01*
X146511155Y-118008437D01*
X146601574Y-117957840D01*
X146698955Y-117911367D01*
X146802576Y-117869032D01*
X146911712Y-117830853D01*
X147025640Y-117796845D01*
X147143637Y-117767025D01*
X147264978Y-117741410D01*
X147388940Y-117720015D01*
X147641832Y-117689953D01*
X147896523Y-117676969D01*
X148147225Y-117681194D01*
X148269271Y-117689800D01*
X148388149Y-117702758D01*
X148503134Y-117720083D01*
X148613504Y-117741792D01*
X148718535Y-117767901D01*
X148817502Y-117798426D01*
X148909683Y-117833384D01*
X148994354Y-117872791D01*
X149052883Y-117905281D01*
X149104327Y-117938558D01*
X149148816Y-117972497D01*
X149186481Y-118006973D01*
X149217451Y-118041863D01*
X149241857Y-118077042D01*
X149259830Y-118112385D01*
X149271498Y-118147768D01*
X149276993Y-118183067D01*
X149276444Y-118218156D01*
X149269982Y-118252912D01*
X149257736Y-118287210D01*
X149239838Y-118320926D01*
X149216417Y-118353934D01*
X149187603Y-118386111D01*
X149153527Y-118417332D01*
X149114318Y-118447472D01*
X149070108Y-118476408D01*
X149021025Y-118504014D01*
X148967201Y-118530166D01*
X148908765Y-118554740D01*
X148845847Y-118577611D01*
X148778578Y-118598655D01*
X148707089Y-118617747D01*
X148631508Y-118634763D01*
X148551966Y-118649577D01*
X148468594Y-118662067D01*
X148381522Y-118672107D01*
X148290879Y-118679572D01*
X148196796Y-118684339D01*
X148099404Y-118686282D01*
X147998831Y-118685278D01*
X147911099Y-118681907D01*
X147828692Y-118676341D01*
X147751446Y-118668712D01*
X147679200Y-118659148D01*
X147611792Y-118647779D01*
X147549059Y-118634737D01*
X147490840Y-118620149D01*
X147436971Y-118604148D01*
X147387291Y-118586861D01*
X147341638Y-118568420D01*
X147299849Y-118548955D01*
X147261763Y-118528594D01*
X147227216Y-118507469D01*
X147196047Y-118485709D01*
X147168093Y-118463444D01*
X147143193Y-118440804D01*
X147121184Y-118417920D01*
X147101903Y-118394920D01*
X147070881Y-118349094D01*
X147048827Y-118304368D01*
X147034444Y-118261780D01*
X147026435Y-118222370D01*
X147023501Y-118187178D01*
X147024346Y-118157243D01*
X147027672Y-118133604D01*
X146966305Y-118152148D01*
X146907357Y-118176550D01*
X146851383Y-118206351D01*
X146798940Y-118241090D01*
X146750582Y-118280307D01*
X146706867Y-118323543D01*
X146668350Y-118370337D01*
X146635587Y-118420229D01*
X146609135Y-118472759D01*
X146589549Y-118527467D01*
X146577385Y-118583893D01*
X146573199Y-118641577D01*
X146577547Y-118700059D01*
X146590986Y-118758878D01*
X146614071Y-118817575D01*
X146647359Y-118875690D01*
X146691405Y-118932762D01*
X146746765Y-118988332D01*
X146813995Y-119041939D01*
X146893652Y-119093124D01*
X146986292Y-119141426D01*
X147092469Y-119186385D01*
X147212741Y-119227541D01*
X147347664Y-119264435D01*
X147497792Y-119296605D01*
X147663684Y-119323592D01*
X147845893Y-119344937D01*
X148044978Y-119360178D01*
X148261492Y-119368855D01*
X148495993Y-119370510D01*
X148749037Y-119364681D01*
X149021179Y-119350909D01*
X150826621Y-119244186D01*
X150807740Y-119199016D01*
X150784615Y-119124944D01*
X150768698Y-119048967D01*
X150760173Y-118971133D01*
X150759226Y-118891487D01*
X150766043Y-118810078D01*
X150772926Y-118769670D01*
X151111186Y-118769670D01*
X151111802Y-118852470D01*
X151118270Y-118931594D01*
X151130427Y-119007112D01*
X151148110Y-119079095D01*
X151171154Y-119147614D01*
X151199396Y-119212737D01*
X151204308Y-119221860D01*
X155137715Y-118989348D01*
X155114315Y-118939163D01*
X155077114Y-118882888D01*
X155029312Y-118828012D01*
X154970759Y-118774830D01*
X154901303Y-118723635D01*
X154820791Y-118674721D01*
X154729073Y-118628383D01*
X154625997Y-118584914D01*
X154511410Y-118544609D01*
X154371444Y-118503777D01*
X154231219Y-118470583D01*
X154091397Y-118444603D01*
X153952635Y-118425416D01*
X153815593Y-118412598D01*
X153680930Y-118405728D01*
X153549306Y-118404382D01*
X153421378Y-118408138D01*
X153297807Y-118416574D01*
X153179252Y-118429267D01*
X153066371Y-118445794D01*
X152959825Y-118465734D01*
X152860271Y-118488663D01*
X152768370Y-118514158D01*
X152684780Y-118541799D01*
X152610161Y-118571161D01*
X152563627Y-118592095D01*
X152520100Y-118613518D01*
X152499511Y-118624378D01*
X152479728Y-118635317D01*
X152460771Y-118646322D01*
X152442659Y-118657377D01*
X152425409Y-118668469D01*
X152409041Y-118679584D01*
X152393572Y-118690706D01*
X152379022Y-118701822D01*
X152365409Y-118712918D01*
X152352751Y-118723979D01*
X152341067Y-118734990D01*
X152330376Y-118745938D01*
X152326310Y-118750204D01*
X152321500Y-118755004D01*
X152315959Y-118760201D01*
X152309698Y-118765662D01*
X152302730Y-118771251D01*
X152295066Y-118776833D01*
X152286718Y-118782273D01*
X152282292Y-118784897D01*
X152277699Y-118787435D01*
X152272941Y-118789871D01*
X152268020Y-118792186D01*
X152262937Y-118794364D01*
X152257694Y-118796389D01*
X152252291Y-118798244D01*
X152246731Y-118799910D01*
X152241015Y-118801373D01*
X152235145Y-118802614D01*
X152229121Y-118803617D01*
X152222946Y-118804365D01*
X152216621Y-118804842D01*
X152210148Y-118805029D01*
X152203528Y-118804911D01*
X152196762Y-118804470D01*
X152189852Y-118803690D01*
X152182799Y-118802554D01*
X152171632Y-118800232D01*
X152166550Y-118798979D01*
X152161789Y-118797670D01*
X152157342Y-118796305D01*
X152153197Y-118794888D01*
X152149347Y-118793420D01*
X152145781Y-118791904D01*
X152142491Y-118790343D01*
X152139468Y-118788738D01*
X152136701Y-118787093D01*
X152134183Y-118785410D01*
X152131903Y-118783690D01*
X152129852Y-118781937D01*
X152128022Y-118780153D01*
X152126402Y-118778340D01*
X152124984Y-118776501D01*
X152123758Y-118774638D01*
X152122715Y-118772753D01*
X152121846Y-118770849D01*
X152121141Y-118768928D01*
X152120592Y-118766992D01*
X152120189Y-118765045D01*
X152119923Y-118763088D01*
X152119764Y-118759155D01*
X152120041Y-118755211D01*
X152120680Y-118751277D01*
X152121607Y-118747372D01*
X152129609Y-118722940D01*
X152140458Y-118698390D01*
X152154139Y-118673766D01*
X152170636Y-118649113D01*
X152189933Y-118624477D01*
X152212013Y-118599901D01*
X152236863Y-118575430D01*
X152264465Y-118551111D01*
X152294804Y-118526986D01*
X152327864Y-118503102D01*
X152363629Y-118479502D01*
X152402083Y-118456232D01*
X152443211Y-118433337D01*
X152486997Y-118410862D01*
X152533425Y-118388850D01*
X152582479Y-118367348D01*
X152634143Y-118346400D01*
X152688402Y-118326050D01*
X152745240Y-118306344D01*
X152804641Y-118287326D01*
X152866588Y-118269042D01*
X152931068Y-118251535D01*
X152998062Y-118234852D01*
X153067557Y-118219036D01*
X153139535Y-118204133D01*
X153213982Y-118190187D01*
X153290881Y-118177243D01*
X153370216Y-118165346D01*
X153451972Y-118154541D01*
X153536133Y-118144873D01*
X153622684Y-118136386D01*
X153711607Y-118129125D01*
X153976787Y-118117342D01*
X154244867Y-118120240D01*
X154512633Y-118137207D01*
X154776870Y-118167632D01*
X155034364Y-118210903D01*
X155161649Y-118239444D01*
X155281900Y-118266407D01*
X155516265Y-118333534D01*
X155734243Y-118411671D01*
X155932620Y-118500206D01*
X156108182Y-118598529D01*
X156257713Y-118706026D01*
X156321713Y-118763024D01*
X156378001Y-118822086D01*
X156426173Y-118883136D01*
X156444420Y-118912106D01*
X157696894Y-118838070D01*
X160342288Y-118838070D01*
X160967691Y-119151787D01*
X161259314Y-119266990D01*
X161516369Y-119360248D01*
X161744092Y-119434760D01*
X161947720Y-119493721D01*
X162132487Y-119540331D01*
X162303630Y-119577785D01*
X162625987Y-119638016D01*
X162939865Y-119686895D01*
X163254878Y-119721990D01*
X163409016Y-119733669D01*
X163558887Y-119741060D01*
X163702973Y-119743883D01*
X163839757Y-119741859D01*
X163967722Y-119734706D01*
X164085351Y-119722144D01*
X164191126Y-119703893D01*
X164283530Y-119679673D01*
X164361047Y-119649202D01*
X164393749Y-119631535D01*
X164422159Y-119612201D01*
X164446090Y-119591164D01*
X164465350Y-119568389D01*
X164479750Y-119543841D01*
X164489101Y-119517486D01*
X164492519Y-119491595D01*
X164490025Y-119466007D01*
X164481868Y-119440736D01*
X164468297Y-119415796D01*
X164449564Y-119391200D01*
X164425916Y-119366964D01*
X164397603Y-119343102D01*
X164364876Y-119319626D01*
X164327982Y-119296553D01*
X164287173Y-119273895D01*
X164194804Y-119229883D01*
X164089766Y-119187703D01*
X163974053Y-119147469D01*
X163849663Y-119109294D01*
X163718591Y-119073290D01*
X163582834Y-119039572D01*
X163444388Y-119008252D01*
X163305248Y-118979442D01*
X163167412Y-118953257D01*
X162903633Y-118909212D01*
X162676417Y-118876407D01*
X162445472Y-118847489D01*
X162207253Y-118823458D01*
X161958219Y-118805315D01*
X161694826Y-118794063D01*
X161413531Y-118790701D01*
X161110792Y-118796232D01*
X160783065Y-118811657D01*
X160342288Y-118838070D01*
X157696894Y-118838070D01*
X158316754Y-118801429D01*
X158191084Y-118739303D01*
X157698768Y-118490990D01*
X157402278Y-118344051D01*
X157112424Y-118207841D01*
X156826320Y-118082637D01*
X156541083Y-117968715D01*
X156397889Y-117916072D01*
X156253829Y-117866353D01*
X156108545Y-117819594D01*
X155961675Y-117775828D01*
X155812858Y-117735090D01*
X155661735Y-117697415D01*
X155507944Y-117662838D01*
X155351126Y-117631393D01*
X155170255Y-117599640D01*
X154984181Y-117571791D01*
X154793461Y-117548266D01*
X154598651Y-117529482D01*
X154400310Y-117515859D01*
X154198996Y-117507816D01*
X153995264Y-117505771D01*
X153789673Y-117510144D01*
X153582781Y-117521352D01*
X153375145Y-117539816D01*
X153167322Y-117565953D01*
X152959869Y-117600183D01*
X152753345Y-117642925D01*
X152548307Y-117694596D01*
X152345311Y-117755617D01*
X152144916Y-117826406D01*
X152034633Y-117871761D01*
X151928785Y-117920394D01*
X151827726Y-117971992D01*
X151731811Y-118026242D01*
X151641395Y-118082828D01*
X151556832Y-118141437D01*
X151478477Y-118201755D01*
X151406686Y-118263467D01*
X151341812Y-118326260D01*
X151284210Y-118389818D01*
X151234236Y-118453829D01*
X151192244Y-118517978D01*
X151158588Y-118581951D01*
X151133623Y-118645433D01*
X151124510Y-118676892D01*
X151117704Y-118708111D01*
X151113248Y-118739050D01*
X151111186Y-118769670D01*
X150772926Y-118769670D01*
X150773391Y-118766943D01*
X150784099Y-118723788D01*
X150798077Y-118680648D01*
X150815235Y-118637562D01*
X150835482Y-118594563D01*
X150858728Y-118551690D01*
X150884883Y-118508979D01*
X150913856Y-118466465D01*
X150945557Y-118424185D01*
X150979897Y-118382176D01*
X151016784Y-118340473D01*
X151056128Y-118299113D01*
X151097840Y-118258132D01*
X151141829Y-118217567D01*
X151236275Y-118137830D01*
X151338746Y-118060190D01*
X151448519Y-117984940D01*
X151564873Y-117912369D01*
X151687084Y-117842769D01*
X151814431Y-117776429D01*
X151946191Y-117713640D01*
X152081643Y-117654693D01*
X152220065Y-117599879D01*
X152385510Y-117541072D01*
X152557471Y-117486716D01*
X152735186Y-117436779D01*
X152917893Y-117391226D01*
X153104829Y-117350024D01*
X153295231Y-117313141D01*
X153488337Y-117280542D01*
X153683386Y-117252195D01*
X153879613Y-117228065D01*
X153995264Y-117216335D01*
G37*
%TD*%
D12*
%TO.C,MB1*%
X157870000Y-109555000D03*
X160410000Y-109555000D03*
X162950000Y-109555000D03*
X165490000Y-109555000D03*
X168030000Y-109555000D03*
X170570000Y-109555000D03*
X173110000Y-109555000D03*
X175650000Y-109555000D03*
X157870000Y-127335000D03*
X160410000Y-127335000D03*
X162950000Y-127335000D03*
X165490000Y-127335000D03*
X168030000Y-127335000D03*
X170570000Y-127335000D03*
X173110000Y-127335000D03*
X175650000Y-127335000D03*
%TD*%
%TO.C,MB2*%
X179730000Y-109660000D03*
X182270000Y-109660000D03*
X184810000Y-109660000D03*
X187350000Y-109660000D03*
X189890000Y-109660000D03*
X192430000Y-109660000D03*
X194970000Y-109660000D03*
X197510000Y-109660000D03*
X179730000Y-127440000D03*
X182270000Y-127440000D03*
X184810000Y-127440000D03*
X187350000Y-127440000D03*
X189890000Y-127440000D03*
X192430000Y-127440000D03*
X194970000Y-127440000D03*
X197510000Y-127440000D03*
%TD*%
D13*
%TO.C,R1*%
X137080000Y-110880000D03*
D14*
X147239999Y-110879999D03*
%TD*%
D13*
%TO.C,*%
X131270000Y-113410000D03*
%TD*%
%TO.C,R2*%
X136990000Y-126810000D03*
D14*
X147149999Y-126809999D03*
%TD*%
D13*
%TO.C,*%
X137080000Y-114300000D03*
%TD*%
D15*
%TO.C,C1*%
X131130000Y-118800000D03*
X136130000Y-118800000D03*
%TD*%
G36*
X155163065Y-119147108D02*
G01*
X155163645Y-119148645D01*
X155162156Y-119172496D01*
X155162109Y-119172819D01*
X155148588Y-119231677D01*
X155148498Y-119231967D01*
X155125288Y-119290461D01*
X155125169Y-119290708D01*
X155092422Y-119348542D01*
X155092289Y-119348747D01*
X155050155Y-119405627D01*
X155050017Y-119405794D01*
X154998650Y-119461427D01*
X154998515Y-119461560D01*
X154938066Y-119515651D01*
X154937935Y-119515759D01*
X154868555Y-119568014D01*
X154868432Y-119568100D01*
X154790273Y-119618225D01*
X154790156Y-119618294D01*
X154703370Y-119665995D01*
X154703261Y-119666051D01*
X154608001Y-119711034D01*
X154607898Y-119711079D01*
X154504313Y-119753050D01*
X154504216Y-119753086D01*
X154392460Y-119791750D01*
X154392368Y-119791779D01*
X154272592Y-119826844D01*
X154272504Y-119826868D01*
X154144860Y-119858037D01*
X154144777Y-119858055D01*
X154009416Y-119885036D01*
X154009336Y-119885051D01*
X153866410Y-119907550D01*
X153866333Y-119907560D01*
X153715995Y-119925281D01*
X153715921Y-119925289D01*
X153558321Y-119937940D01*
X153558249Y-119937944D01*
X153393540Y-119945230D01*
X153393471Y-119945232D01*
X153221804Y-119946859D01*
X153221741Y-119946859D01*
X153010842Y-119942194D01*
X153010778Y-119942191D01*
X152804298Y-119930980D01*
X152804224Y-119930975D01*
X152603473Y-119912655D01*
X152603389Y-119912645D01*
X152409677Y-119886655D01*
X152409606Y-119886644D01*
X152315799Y-119870596D01*
X152315747Y-119870587D01*
X152224190Y-119852410D01*
X152224133Y-119852398D01*
X152134992Y-119832023D01*
X152134932Y-119832008D01*
X152048369Y-119809363D01*
X152048304Y-119809345D01*
X151964482Y-119784361D01*
X151964412Y-119784338D01*
X151883497Y-119756943D01*
X151883421Y-119756916D01*
X151805575Y-119727041D01*
X151805495Y-119727008D01*
X151730882Y-119694583D01*
X151730796Y-119694543D01*
X151659580Y-119659496D01*
X151659489Y-119659449D01*
X151591834Y-119621711D01*
X151591738Y-119621654D01*
X151527807Y-119581155D01*
X151527707Y-119581087D01*
X151526465Y-119580191D01*
X151507170Y-119566266D01*
X151506350Y-119564441D01*
X151507521Y-119562820D01*
X151509510Y-119563022D01*
X151528792Y-119576937D01*
X151531243Y-119578596D01*
X151592663Y-119617503D01*
X151595049Y-119618923D01*
X151660280Y-119655310D01*
X151662538Y-119656494D01*
X151731432Y-119690399D01*
X151733604Y-119691405D01*
X151806086Y-119722903D01*
X151808050Y-119723706D01*
X151883881Y-119752808D01*
X151885772Y-119753491D01*
X151885771Y-119753491D01*
X151964785Y-119780241D01*
X151966541Y-119780799D01*
X152048614Y-119805263D01*
X152050209Y-119805709D01*
X152135171Y-119827935D01*
X152136690Y-119828306D01*
X152224306Y-119848333D01*
X152225682Y-119848627D01*
X152315831Y-119866525D01*
X152317150Y-119866769D01*
X152317149Y-119866769D01*
X152409349Y-119882542D01*
X152411124Y-119882812D01*
X152602836Y-119908535D01*
X152604890Y-119908767D01*
X152803637Y-119926903D01*
X152805468Y-119927037D01*
X153010148Y-119938150D01*
X153011751Y-119938211D01*
X153221033Y-119942841D01*
X153221032Y-119942841D01*
X153222578Y-119942850D01*
X153392553Y-119941240D01*
X153394242Y-119941194D01*
X153557161Y-119933987D01*
X153558916Y-119933878D01*
X153714655Y-119921376D01*
X153716468Y-119921196D01*
X153864874Y-119903704D01*
X153866751Y-119903446D01*
X154007694Y-119881259D01*
X154009679Y-119880905D01*
X154142888Y-119854353D01*
X154144996Y-119853886D01*
X154270400Y-119823264D01*
X154272600Y-119822674D01*
X154390046Y-119788290D01*
X154392312Y-119787566D01*
X154501661Y-119749736D01*
X154504031Y-119748847D01*
X154605054Y-119707913D01*
X154607593Y-119706800D01*
X154700150Y-119663095D01*
X154702813Y-119661735D01*
X154786715Y-119615619D01*
X154789571Y-119613920D01*
X154864649Y-119565772D01*
X154867694Y-119563653D01*
X154933812Y-119513854D01*
X154937013Y-119511224D01*
X154994025Y-119460208D01*
X154997380Y-119456903D01*
X155045186Y-119405127D01*
X155048598Y-119401006D01*
X155087189Y-119348911D01*
X155090497Y-119343822D01*
X155119933Y-119291837D01*
X155122875Y-119285692D01*
X155143331Y-119234137D01*
X155145569Y-119226952D01*
X155148570Y-119213886D01*
X155146082Y-119184187D01*
X155127040Y-119161688D01*
X155097858Y-119154251D01*
X155096493Y-119153050D01*
X155096665Y-119151239D01*
X155098232Y-119150317D01*
X155161529Y-119146524D01*
X155163065Y-119147108D01*
G37*
G36*
X160531500Y-118825546D02*
G01*
X160531901Y-118827309D01*
X160530716Y-118828675D01*
X160501295Y-118840665D01*
X160485587Y-118867496D01*
X160489450Y-118898350D01*
X160511535Y-118920730D01*
X160966543Y-119148972D01*
X160970561Y-119150770D01*
X161259377Y-119264864D01*
X161260710Y-119265368D01*
X161260709Y-119265368D01*
X161516253Y-119358078D01*
X161517772Y-119358602D01*
X161674366Y-119409841D01*
X161675701Y-119411330D01*
X161675079Y-119413231D01*
X161673122Y-119413643D01*
X161515747Y-119362149D01*
X161515687Y-119362128D01*
X161258632Y-119268870D01*
X161258579Y-119268850D01*
X160966956Y-119153647D01*
X160966794Y-119153575D01*
X160341391Y-118839858D01*
X160340342Y-118838533D01*
X160340682Y-118836878D01*
X160342168Y-118836074D01*
X160529841Y-118824827D01*
X160531500Y-118825546D01*
G37*
G36*
X150804591Y-119182219D02*
G01*
X150809621Y-119198333D01*
X150828466Y-119243415D01*
X150828318Y-119245245D01*
X150826739Y-119246183D01*
X149021297Y-119352906D01*
X149021280Y-119352906D01*
X148749138Y-119366678D01*
X148749083Y-119366680D01*
X148496039Y-119372509D01*
X148495979Y-119372510D01*
X148261478Y-119370855D01*
X148261412Y-119370853D01*
X148044898Y-119362176D01*
X148044825Y-119362172D01*
X147845740Y-119346931D01*
X147845660Y-119346923D01*
X147663451Y-119325578D01*
X147663363Y-119325566D01*
X147497471Y-119298579D01*
X147497373Y-119298561D01*
X147347245Y-119266391D01*
X147347136Y-119266364D01*
X147212213Y-119229470D01*
X147212093Y-119229433D01*
X147093509Y-119188855D01*
X147091821Y-119188277D01*
X147091689Y-119188226D01*
X147090049Y-119187531D01*
X147088847Y-119185958D01*
X147089587Y-119184122D01*
X147091544Y-119183822D01*
X147094836Y-119185081D01*
X147211839Y-119225118D01*
X147214836Y-119226040D01*
X147346812Y-119262128D01*
X147349468Y-119262775D01*
X147496976Y-119294384D01*
X147496975Y-119294384D01*
X147499360Y-119294833D01*
X147662860Y-119321430D01*
X147665086Y-119321742D01*
X147665085Y-119321742D01*
X147845067Y-119342826D01*
X147847089Y-119343022D01*
X147847088Y-119343022D01*
X148044199Y-119358112D01*
X148046033Y-119358218D01*
X148046032Y-119358218D01*
X148260701Y-119366821D01*
X148262315Y-119366860D01*
X148495227Y-119368503D01*
X148496732Y-119368492D01*
X148748298Y-119362697D01*
X148749687Y-119362645D01*
X149020807Y-119348925D01*
X149021224Y-119348902D01*
X150757035Y-119246294D01*
X150784300Y-119235987D01*
X150800687Y-119212269D01*
X150800682Y-119182815D01*
X150801512Y-119181193D01*
X150803315Y-119180918D01*
X150804591Y-119182219D01*
G37*
G36*
X155100474Y-118914599D02*
G01*
X155115983Y-118938060D01*
X155116128Y-118938318D01*
X155139528Y-118988503D01*
X155139433Y-118990372D01*
X155137833Y-118991345D01*
X151204426Y-119223857D01*
X151203334Y-119223607D01*
X151202547Y-119222808D01*
X151197635Y-119213685D01*
X151197561Y-119213533D01*
X151187489Y-119190308D01*
X151187605Y-119188490D01*
X151189146Y-119187520D01*
X151190835Y-119188202D01*
X151210300Y-119210650D01*
X151238821Y-119217814D01*
X155059189Y-118991984D01*
X155089920Y-118978687D01*
X155104733Y-118949075D01*
X155096861Y-118916167D01*
X155097271Y-118914420D01*
X155098918Y-118913705D01*
X155100474Y-118914599D01*
G37*
G36*
X158191985Y-118737517D02*
G01*
X158191984Y-118737517D01*
X158317640Y-118799636D01*
X158318698Y-118800959D01*
X158318361Y-118802619D01*
X158316872Y-118803426D01*
X156444538Y-118914103D01*
X156443506Y-118913885D01*
X156442728Y-118913172D01*
X156424481Y-118884202D01*
X156424235Y-118883351D01*
X156424218Y-118883327D01*
X156424224Y-118883312D01*
X156424173Y-118883136D01*
X156424173Y-118883135D01*
X156424868Y-118881619D01*
X156424942Y-118881597D01*
X156424967Y-118881539D01*
X156426406Y-118880404D01*
X156427930Y-118879994D01*
X156429277Y-118880817D01*
X156429389Y-118880975D01*
X156429719Y-118882522D01*
X156428899Y-118883712D01*
X156430056Y-118885548D01*
X156437166Y-118892064D01*
X156437449Y-118892385D01*
X156438851Y-118894370D01*
X156440513Y-118895546D01*
X156441217Y-118895777D01*
X156449097Y-118902999D01*
X156474368Y-118908331D01*
X158126905Y-118810646D01*
X158156018Y-118798816D01*
X158171754Y-118772017D01*
X158167946Y-118741174D01*
X158145689Y-118718528D01*
X158145141Y-118716804D01*
X158146207Y-118715344D01*
X158148016Y-118715340D01*
X158191985Y-118737517D01*
G37*
G36*
X158695244Y-118006603D02*
G01*
X158695387Y-118006670D01*
X158696427Y-118007825D01*
X158696326Y-118009377D01*
X158696004Y-118010019D01*
X160051970Y-118690202D01*
X160077073Y-118695368D01*
X160410938Y-118675634D01*
X160410861Y-118674328D01*
X160411402Y-118672838D01*
X160412857Y-118672210D01*
X160412861Y-118672210D01*
X160414234Y-118672755D01*
X160414858Y-118674094D01*
X160414933Y-118675400D01*
X161068592Y-118637470D01*
X161068507Y-118636005D01*
X161069007Y-118634562D01*
X161070379Y-118633893D01*
X161070443Y-118633889D01*
X161071908Y-118634400D01*
X161072566Y-118635805D01*
X161072704Y-118639272D01*
X161072188Y-118640695D01*
X161070822Y-118641349D01*
X160413170Y-118679509D01*
X160413171Y-118679510D01*
X160063531Y-118700178D01*
X160062516Y-118699969D01*
X158692423Y-118012699D01*
X158691441Y-118011596D01*
X158691483Y-118010120D01*
X158692558Y-118007623D01*
X158693685Y-118006544D01*
X158695244Y-118006603D01*
G37*
M02*
