%TF.GenerationSoftware,KiCad,Pcbnew,(7.0.0)*%
%TF.CreationDate,2023-12-29T11:59:30-08:00*%
%TF.ProjectId,MiniBadgeUSBmount,4d696e69-4261-4646-9765-5553426d6f75,rev?*%
%TF.SameCoordinates,Original*%
%TF.FileFunction,Legend,Bot*%
%TF.FilePolarity,Positive*%
%FSLAX46Y46*%
G04 Gerber Fmt 4.6, Leading zero omitted, Abs format (unit mm)*
G04 Created by KiCad (PCBNEW (7.0.0)) date 2023-12-29 11:59:30*
%MOMM*%
%LPD*%
G01*
G04 APERTURE LIST*
%ADD10C,0.250000*%
%ADD11C,0.044354*%
%ADD12C,0.150000*%
G04 APERTURE END LIST*
D10*
X192163333Y-121515714D02*
X192163333Y-122325238D01*
X192163333Y-122325238D02*
X192210952Y-122420476D01*
X192210952Y-122420476D02*
X192258571Y-122468095D01*
X192258571Y-122468095D02*
X192353809Y-122515714D01*
X192353809Y-122515714D02*
X192496666Y-122515714D01*
X192496666Y-122515714D02*
X192591904Y-122468095D01*
X192163333Y-122134761D02*
X192258571Y-122182380D01*
X192258571Y-122182380D02*
X192449047Y-122182380D01*
X192449047Y-122182380D02*
X192544285Y-122134761D01*
X192544285Y-122134761D02*
X192591904Y-122087142D01*
X192591904Y-122087142D02*
X192639523Y-121991904D01*
X192639523Y-121991904D02*
X192639523Y-121706190D01*
X192639523Y-121706190D02*
X192591904Y-121610952D01*
X192591904Y-121610952D02*
X192544285Y-121563333D01*
X192544285Y-121563333D02*
X192449047Y-121515714D01*
X192449047Y-121515714D02*
X192258571Y-121515714D01*
X192258571Y-121515714D02*
X192163333Y-121563333D01*
X191687142Y-122182380D02*
X191687142Y-121515714D01*
X191687142Y-121182380D02*
X191734761Y-121230000D01*
X191734761Y-121230000D02*
X191687142Y-121277619D01*
X191687142Y-121277619D02*
X191639523Y-121230000D01*
X191639523Y-121230000D02*
X191687142Y-121182380D01*
X191687142Y-121182380D02*
X191687142Y-121277619D01*
X191353809Y-121515714D02*
X190972857Y-121515714D01*
X191210952Y-121182380D02*
X191210952Y-122039523D01*
X191210952Y-122039523D02*
X191163333Y-122134761D01*
X191163333Y-122134761D02*
X191068095Y-122182380D01*
X191068095Y-122182380D02*
X190972857Y-122182380D01*
X190639523Y-122182380D02*
X190639523Y-121182380D01*
X190210952Y-122182380D02*
X190210952Y-121658571D01*
X190210952Y-121658571D02*
X190258571Y-121563333D01*
X190258571Y-121563333D02*
X190353809Y-121515714D01*
X190353809Y-121515714D02*
X190496666Y-121515714D01*
X190496666Y-121515714D02*
X190591904Y-121563333D01*
X190591904Y-121563333D02*
X190639523Y-121610952D01*
X189306190Y-121515714D02*
X189306190Y-122182380D01*
X189734761Y-121515714D02*
X189734761Y-122039523D01*
X189734761Y-122039523D02*
X189687142Y-122134761D01*
X189687142Y-122134761D02*
X189591904Y-122182380D01*
X189591904Y-122182380D02*
X189449047Y-122182380D01*
X189449047Y-122182380D02*
X189353809Y-122134761D01*
X189353809Y-122134761D02*
X189306190Y-122087142D01*
X188829999Y-122182380D02*
X188829999Y-121182380D01*
X188829999Y-121563333D02*
X188734761Y-121515714D01*
X188734761Y-121515714D02*
X188544285Y-121515714D01*
X188544285Y-121515714D02*
X188449047Y-121563333D01*
X188449047Y-121563333D02*
X188401428Y-121610952D01*
X188401428Y-121610952D02*
X188353809Y-121706190D01*
X188353809Y-121706190D02*
X188353809Y-121991904D01*
X188353809Y-121991904D02*
X188401428Y-122087142D01*
X188401428Y-122087142D02*
X188449047Y-122134761D01*
X188449047Y-122134761D02*
X188544285Y-122182380D01*
X188544285Y-122182380D02*
X188734761Y-122182380D01*
X188734761Y-122182380D02*
X188829999Y-122134761D01*
X187925237Y-122087142D02*
X187877618Y-122134761D01*
X187877618Y-122134761D02*
X187925237Y-122182380D01*
X187925237Y-122182380D02*
X187972856Y-122134761D01*
X187972856Y-122134761D02*
X187925237Y-122087142D01*
X187925237Y-122087142D02*
X187925237Y-122182380D01*
X187020476Y-122134761D02*
X187115714Y-122182380D01*
X187115714Y-122182380D02*
X187306190Y-122182380D01*
X187306190Y-122182380D02*
X187401428Y-122134761D01*
X187401428Y-122134761D02*
X187449047Y-122087142D01*
X187449047Y-122087142D02*
X187496666Y-121991904D01*
X187496666Y-121991904D02*
X187496666Y-121706190D01*
X187496666Y-121706190D02*
X187449047Y-121610952D01*
X187449047Y-121610952D02*
X187401428Y-121563333D01*
X187401428Y-121563333D02*
X187306190Y-121515714D01*
X187306190Y-121515714D02*
X187115714Y-121515714D01*
X187115714Y-121515714D02*
X187020476Y-121563333D01*
X186449047Y-122182380D02*
X186544285Y-122134761D01*
X186544285Y-122134761D02*
X186591904Y-122087142D01*
X186591904Y-122087142D02*
X186639523Y-121991904D01*
X186639523Y-121991904D02*
X186639523Y-121706190D01*
X186639523Y-121706190D02*
X186591904Y-121610952D01*
X186591904Y-121610952D02*
X186544285Y-121563333D01*
X186544285Y-121563333D02*
X186449047Y-121515714D01*
X186449047Y-121515714D02*
X186306190Y-121515714D01*
X186306190Y-121515714D02*
X186210952Y-121563333D01*
X186210952Y-121563333D02*
X186163333Y-121610952D01*
X186163333Y-121610952D02*
X186115714Y-121706190D01*
X186115714Y-121706190D02*
X186115714Y-121991904D01*
X186115714Y-121991904D02*
X186163333Y-122087142D01*
X186163333Y-122087142D02*
X186210952Y-122134761D01*
X186210952Y-122134761D02*
X186306190Y-122182380D01*
X186306190Y-122182380D02*
X186449047Y-122182380D01*
X185687142Y-122182380D02*
X185687142Y-121515714D01*
X185687142Y-121610952D02*
X185639523Y-121563333D01*
X185639523Y-121563333D02*
X185544285Y-121515714D01*
X185544285Y-121515714D02*
X185401428Y-121515714D01*
X185401428Y-121515714D02*
X185306190Y-121563333D01*
X185306190Y-121563333D02*
X185258571Y-121658571D01*
X185258571Y-121658571D02*
X185258571Y-122182380D01*
X185258571Y-121658571D02*
X185210952Y-121563333D01*
X185210952Y-121563333D02*
X185115714Y-121515714D01*
X185115714Y-121515714D02*
X184972857Y-121515714D01*
X184972857Y-121515714D02*
X184877618Y-121563333D01*
X184877618Y-121563333D02*
X184829999Y-121658571D01*
X184829999Y-121658571D02*
X184829999Y-122182380D01*
X183639524Y-121134761D02*
X184496666Y-122420476D01*
X183449047Y-121182380D02*
X183115714Y-122182380D01*
X183115714Y-122182380D02*
X182782381Y-121182380D01*
X182449047Y-122182380D02*
X182449047Y-121515714D01*
X182449047Y-121182380D02*
X182496666Y-121230000D01*
X182496666Y-121230000D02*
X182449047Y-121277619D01*
X182449047Y-121277619D02*
X182401428Y-121230000D01*
X182401428Y-121230000D02*
X182449047Y-121182380D01*
X182449047Y-121182380D02*
X182449047Y-121277619D01*
X182115714Y-121515714D02*
X181734762Y-121515714D01*
X181972857Y-121182380D02*
X181972857Y-122039523D01*
X181972857Y-122039523D02*
X181925238Y-122134761D01*
X181925238Y-122134761D02*
X181830000Y-122182380D01*
X181830000Y-122182380D02*
X181734762Y-122182380D01*
X180972857Y-122182380D02*
X180972857Y-121658571D01*
X180972857Y-121658571D02*
X181020476Y-121563333D01*
X181020476Y-121563333D02*
X181115714Y-121515714D01*
X181115714Y-121515714D02*
X181306190Y-121515714D01*
X181306190Y-121515714D02*
X181401428Y-121563333D01*
X180972857Y-122134761D02*
X181068095Y-122182380D01*
X181068095Y-122182380D02*
X181306190Y-122182380D01*
X181306190Y-122182380D02*
X181401428Y-122134761D01*
X181401428Y-122134761D02*
X181449047Y-122039523D01*
X181449047Y-122039523D02*
X181449047Y-121944285D01*
X181449047Y-121944285D02*
X181401428Y-121849047D01*
X181401428Y-121849047D02*
X181306190Y-121801428D01*
X181306190Y-121801428D02*
X181068095Y-121801428D01*
X181068095Y-121801428D02*
X180972857Y-121753809D01*
X180496666Y-122182380D02*
X180496666Y-121182380D01*
X180020476Y-121515714D02*
X180020476Y-122182380D01*
X180020476Y-121610952D02*
X179972857Y-121563333D01*
X179972857Y-121563333D02*
X179877619Y-121515714D01*
X179877619Y-121515714D02*
X179734762Y-121515714D01*
X179734762Y-121515714D02*
X179639524Y-121563333D01*
X179639524Y-121563333D02*
X179591905Y-121658571D01*
X179591905Y-121658571D02*
X179591905Y-122182380D01*
X178687143Y-121515714D02*
X178687143Y-122325238D01*
X178687143Y-122325238D02*
X178734762Y-122420476D01*
X178734762Y-122420476D02*
X178782381Y-122468095D01*
X178782381Y-122468095D02*
X178877619Y-122515714D01*
X178877619Y-122515714D02*
X179020476Y-122515714D01*
X179020476Y-122515714D02*
X179115714Y-122468095D01*
X178687143Y-122134761D02*
X178782381Y-122182380D01*
X178782381Y-122182380D02*
X178972857Y-122182380D01*
X178972857Y-122182380D02*
X179068095Y-122134761D01*
X179068095Y-122134761D02*
X179115714Y-122087142D01*
X179115714Y-122087142D02*
X179163333Y-121991904D01*
X179163333Y-121991904D02*
X179163333Y-121706190D01*
X179163333Y-121706190D02*
X179115714Y-121610952D01*
X179115714Y-121610952D02*
X179068095Y-121563333D01*
X179068095Y-121563333D02*
X178972857Y-121515714D01*
X178972857Y-121515714D02*
X178782381Y-121515714D01*
X178782381Y-121515714D02*
X178687143Y-121563333D01*
X177830000Y-122134761D02*
X177925238Y-122182380D01*
X177925238Y-122182380D02*
X178115714Y-122182380D01*
X178115714Y-122182380D02*
X178210952Y-122134761D01*
X178210952Y-122134761D02*
X178258571Y-122039523D01*
X178258571Y-122039523D02*
X178258571Y-121658571D01*
X178258571Y-121658571D02*
X178210952Y-121563333D01*
X178210952Y-121563333D02*
X178115714Y-121515714D01*
X178115714Y-121515714D02*
X177925238Y-121515714D01*
X177925238Y-121515714D02*
X177830000Y-121563333D01*
X177830000Y-121563333D02*
X177782381Y-121658571D01*
X177782381Y-121658571D02*
X177782381Y-121753809D01*
X177782381Y-121753809D02*
X178258571Y-121849047D01*
X177353809Y-121515714D02*
X177353809Y-122182380D01*
X177353809Y-121610952D02*
X177306190Y-121563333D01*
X177306190Y-121563333D02*
X177210952Y-121515714D01*
X177210952Y-121515714D02*
X177068095Y-121515714D01*
X177068095Y-121515714D02*
X176972857Y-121563333D01*
X176972857Y-121563333D02*
X176925238Y-121658571D01*
X176925238Y-121658571D02*
X176925238Y-122182380D01*
X176020476Y-122182380D02*
X176020476Y-121658571D01*
X176020476Y-121658571D02*
X176068095Y-121563333D01*
X176068095Y-121563333D02*
X176163333Y-121515714D01*
X176163333Y-121515714D02*
X176353809Y-121515714D01*
X176353809Y-121515714D02*
X176449047Y-121563333D01*
X176020476Y-122134761D02*
X176115714Y-122182380D01*
X176115714Y-122182380D02*
X176353809Y-122182380D01*
X176353809Y-122182380D02*
X176449047Y-122134761D01*
X176449047Y-122134761D02*
X176496666Y-122039523D01*
X176496666Y-122039523D02*
X176496666Y-121944285D01*
X176496666Y-121944285D02*
X176449047Y-121849047D01*
X176449047Y-121849047D02*
X176353809Y-121801428D01*
X176353809Y-121801428D02*
X176115714Y-121801428D01*
X176115714Y-121801428D02*
X176020476Y-121753809D01*
X175544285Y-122182380D02*
X175544285Y-121515714D01*
X175544285Y-121182380D02*
X175591904Y-121230000D01*
X175591904Y-121230000D02*
X175544285Y-121277619D01*
X175544285Y-121277619D02*
X175496666Y-121230000D01*
X175496666Y-121230000D02*
X175544285Y-121182380D01*
X175544285Y-121182380D02*
X175544285Y-121277619D01*
X175068095Y-122182380D02*
X175068095Y-121515714D01*
X175068095Y-121706190D02*
X175020476Y-121610952D01*
X175020476Y-121610952D02*
X174972857Y-121563333D01*
X174972857Y-121563333D02*
X174877619Y-121515714D01*
X174877619Y-121515714D02*
X174782381Y-121515714D01*
X174068095Y-122134761D02*
X174163333Y-122182380D01*
X174163333Y-122182380D02*
X174353809Y-122182380D01*
X174353809Y-122182380D02*
X174449047Y-122134761D01*
X174449047Y-122134761D02*
X174496666Y-122039523D01*
X174496666Y-122039523D02*
X174496666Y-121658571D01*
X174496666Y-121658571D02*
X174449047Y-121563333D01*
X174449047Y-121563333D02*
X174353809Y-121515714D01*
X174353809Y-121515714D02*
X174163333Y-121515714D01*
X174163333Y-121515714D02*
X174068095Y-121563333D01*
X174068095Y-121563333D02*
X174020476Y-121658571D01*
X174020476Y-121658571D02*
X174020476Y-121753809D01*
X174020476Y-121753809D02*
X174496666Y-121849047D01*
X172877619Y-121134761D02*
X173734761Y-122420476D01*
X172544285Y-122182380D02*
X172544285Y-121182380D01*
X172544285Y-121182380D02*
X172210952Y-121896666D01*
X172210952Y-121896666D02*
X171877619Y-121182380D01*
X171877619Y-121182380D02*
X171877619Y-122182380D01*
X171401428Y-122182380D02*
X171401428Y-121515714D01*
X171401428Y-121182380D02*
X171449047Y-121230000D01*
X171449047Y-121230000D02*
X171401428Y-121277619D01*
X171401428Y-121277619D02*
X171353809Y-121230000D01*
X171353809Y-121230000D02*
X171401428Y-121182380D01*
X171401428Y-121182380D02*
X171401428Y-121277619D01*
X170925238Y-121515714D02*
X170925238Y-122182380D01*
X170925238Y-121610952D02*
X170877619Y-121563333D01*
X170877619Y-121563333D02*
X170782381Y-121515714D01*
X170782381Y-121515714D02*
X170639524Y-121515714D01*
X170639524Y-121515714D02*
X170544286Y-121563333D01*
X170544286Y-121563333D02*
X170496667Y-121658571D01*
X170496667Y-121658571D02*
X170496667Y-122182380D01*
X170020476Y-122182380D02*
X170020476Y-121515714D01*
X170020476Y-121182380D02*
X170068095Y-121230000D01*
X170068095Y-121230000D02*
X170020476Y-121277619D01*
X170020476Y-121277619D02*
X169972857Y-121230000D01*
X169972857Y-121230000D02*
X170020476Y-121182380D01*
X170020476Y-121182380D02*
X170020476Y-121277619D01*
X169544286Y-122182380D02*
X169544286Y-121182380D01*
X169544286Y-121563333D02*
X169449048Y-121515714D01*
X169449048Y-121515714D02*
X169258572Y-121515714D01*
X169258572Y-121515714D02*
X169163334Y-121563333D01*
X169163334Y-121563333D02*
X169115715Y-121610952D01*
X169115715Y-121610952D02*
X169068096Y-121706190D01*
X169068096Y-121706190D02*
X169068096Y-121991904D01*
X169068096Y-121991904D02*
X169115715Y-122087142D01*
X169115715Y-122087142D02*
X169163334Y-122134761D01*
X169163334Y-122134761D02*
X169258572Y-122182380D01*
X169258572Y-122182380D02*
X169449048Y-122182380D01*
X169449048Y-122182380D02*
X169544286Y-122134761D01*
X168210953Y-122182380D02*
X168210953Y-121658571D01*
X168210953Y-121658571D02*
X168258572Y-121563333D01*
X168258572Y-121563333D02*
X168353810Y-121515714D01*
X168353810Y-121515714D02*
X168544286Y-121515714D01*
X168544286Y-121515714D02*
X168639524Y-121563333D01*
X168210953Y-122134761D02*
X168306191Y-122182380D01*
X168306191Y-122182380D02*
X168544286Y-122182380D01*
X168544286Y-122182380D02*
X168639524Y-122134761D01*
X168639524Y-122134761D02*
X168687143Y-122039523D01*
X168687143Y-122039523D02*
X168687143Y-121944285D01*
X168687143Y-121944285D02*
X168639524Y-121849047D01*
X168639524Y-121849047D02*
X168544286Y-121801428D01*
X168544286Y-121801428D02*
X168306191Y-121801428D01*
X168306191Y-121801428D02*
X168210953Y-121753809D01*
X167306191Y-122182380D02*
X167306191Y-121182380D01*
X167306191Y-122134761D02*
X167401429Y-122182380D01*
X167401429Y-122182380D02*
X167591905Y-122182380D01*
X167591905Y-122182380D02*
X167687143Y-122134761D01*
X167687143Y-122134761D02*
X167734762Y-122087142D01*
X167734762Y-122087142D02*
X167782381Y-121991904D01*
X167782381Y-121991904D02*
X167782381Y-121706190D01*
X167782381Y-121706190D02*
X167734762Y-121610952D01*
X167734762Y-121610952D02*
X167687143Y-121563333D01*
X167687143Y-121563333D02*
X167591905Y-121515714D01*
X167591905Y-121515714D02*
X167401429Y-121515714D01*
X167401429Y-121515714D02*
X167306191Y-121563333D01*
X166401429Y-121515714D02*
X166401429Y-122325238D01*
X166401429Y-122325238D02*
X166449048Y-122420476D01*
X166449048Y-122420476D02*
X166496667Y-122468095D01*
X166496667Y-122468095D02*
X166591905Y-122515714D01*
X166591905Y-122515714D02*
X166734762Y-122515714D01*
X166734762Y-122515714D02*
X166830000Y-122468095D01*
X166401429Y-122134761D02*
X166496667Y-122182380D01*
X166496667Y-122182380D02*
X166687143Y-122182380D01*
X166687143Y-122182380D02*
X166782381Y-122134761D01*
X166782381Y-122134761D02*
X166830000Y-122087142D01*
X166830000Y-122087142D02*
X166877619Y-121991904D01*
X166877619Y-121991904D02*
X166877619Y-121706190D01*
X166877619Y-121706190D02*
X166830000Y-121610952D01*
X166830000Y-121610952D02*
X166782381Y-121563333D01*
X166782381Y-121563333D02*
X166687143Y-121515714D01*
X166687143Y-121515714D02*
X166496667Y-121515714D01*
X166496667Y-121515714D02*
X166401429Y-121563333D01*
X165544286Y-122134761D02*
X165639524Y-122182380D01*
X165639524Y-122182380D02*
X165830000Y-122182380D01*
X165830000Y-122182380D02*
X165925238Y-122134761D01*
X165925238Y-122134761D02*
X165972857Y-122039523D01*
X165972857Y-122039523D02*
X165972857Y-121658571D01*
X165972857Y-121658571D02*
X165925238Y-121563333D01*
X165925238Y-121563333D02*
X165830000Y-121515714D01*
X165830000Y-121515714D02*
X165639524Y-121515714D01*
X165639524Y-121515714D02*
X165544286Y-121563333D01*
X165544286Y-121563333D02*
X165496667Y-121658571D01*
X165496667Y-121658571D02*
X165496667Y-121753809D01*
X165496667Y-121753809D02*
X165972857Y-121849047D01*
X165068095Y-121182380D02*
X165068095Y-121991904D01*
X165068095Y-121991904D02*
X165020476Y-122087142D01*
X165020476Y-122087142D02*
X164972857Y-122134761D01*
X164972857Y-122134761D02*
X164877619Y-122182380D01*
X164877619Y-122182380D02*
X164687143Y-122182380D01*
X164687143Y-122182380D02*
X164591905Y-122134761D01*
X164591905Y-122134761D02*
X164544286Y-122087142D01*
X164544286Y-122087142D02*
X164496667Y-121991904D01*
X164496667Y-121991904D02*
X164496667Y-121182380D01*
X164068095Y-122134761D02*
X163925238Y-122182380D01*
X163925238Y-122182380D02*
X163687143Y-122182380D01*
X163687143Y-122182380D02*
X163591905Y-122134761D01*
X163591905Y-122134761D02*
X163544286Y-122087142D01*
X163544286Y-122087142D02*
X163496667Y-121991904D01*
X163496667Y-121991904D02*
X163496667Y-121896666D01*
X163496667Y-121896666D02*
X163544286Y-121801428D01*
X163544286Y-121801428D02*
X163591905Y-121753809D01*
X163591905Y-121753809D02*
X163687143Y-121706190D01*
X163687143Y-121706190D02*
X163877619Y-121658571D01*
X163877619Y-121658571D02*
X163972857Y-121610952D01*
X163972857Y-121610952D02*
X164020476Y-121563333D01*
X164020476Y-121563333D02*
X164068095Y-121468095D01*
X164068095Y-121468095D02*
X164068095Y-121372857D01*
X164068095Y-121372857D02*
X164020476Y-121277619D01*
X164020476Y-121277619D02*
X163972857Y-121230000D01*
X163972857Y-121230000D02*
X163877619Y-121182380D01*
X163877619Y-121182380D02*
X163639524Y-121182380D01*
X163639524Y-121182380D02*
X163496667Y-121230000D01*
X162734762Y-121658571D02*
X162591905Y-121706190D01*
X162591905Y-121706190D02*
X162544286Y-121753809D01*
X162544286Y-121753809D02*
X162496667Y-121849047D01*
X162496667Y-121849047D02*
X162496667Y-121991904D01*
X162496667Y-121991904D02*
X162544286Y-122087142D01*
X162544286Y-122087142D02*
X162591905Y-122134761D01*
X162591905Y-122134761D02*
X162687143Y-122182380D01*
X162687143Y-122182380D02*
X163068095Y-122182380D01*
X163068095Y-122182380D02*
X163068095Y-121182380D01*
X163068095Y-121182380D02*
X162734762Y-121182380D01*
X162734762Y-121182380D02*
X162639524Y-121230000D01*
X162639524Y-121230000D02*
X162591905Y-121277619D01*
X162591905Y-121277619D02*
X162544286Y-121372857D01*
X162544286Y-121372857D02*
X162544286Y-121468095D01*
X162544286Y-121468095D02*
X162591905Y-121563333D01*
X162591905Y-121563333D02*
X162639524Y-121610952D01*
X162639524Y-121610952D02*
X162734762Y-121658571D01*
X162734762Y-121658571D02*
X163068095Y-121658571D01*
X162115714Y-122134761D02*
X161972857Y-122182380D01*
X161972857Y-122182380D02*
X161734762Y-122182380D01*
X161734762Y-122182380D02*
X161639524Y-122134761D01*
X161639524Y-122134761D02*
X161591905Y-122087142D01*
X161591905Y-122087142D02*
X161544286Y-121991904D01*
X161544286Y-121991904D02*
X161544286Y-121896666D01*
X161544286Y-121896666D02*
X161591905Y-121801428D01*
X161591905Y-121801428D02*
X161639524Y-121753809D01*
X161639524Y-121753809D02*
X161734762Y-121706190D01*
X161734762Y-121706190D02*
X161925238Y-121658571D01*
X161925238Y-121658571D02*
X162020476Y-121610952D01*
X162020476Y-121610952D02*
X162068095Y-121563333D01*
X162068095Y-121563333D02*
X162115714Y-121468095D01*
X162115714Y-121468095D02*
X162115714Y-121372857D01*
X162115714Y-121372857D02*
X162068095Y-121277619D01*
X162068095Y-121277619D02*
X162020476Y-121230000D01*
X162020476Y-121230000D02*
X161925238Y-121182380D01*
X161925238Y-121182380D02*
X161687143Y-121182380D01*
X161687143Y-121182380D02*
X161544286Y-121230000D01*
X161258571Y-121515714D02*
X160877619Y-121515714D01*
X161115714Y-121182380D02*
X161115714Y-122039523D01*
X161115714Y-122039523D02*
X161068095Y-122134761D01*
X161068095Y-122134761D02*
X160972857Y-122182380D01*
X160972857Y-122182380D02*
X160877619Y-122182380D01*
X160544285Y-122182380D02*
X160544285Y-121515714D01*
X160544285Y-121182380D02*
X160591904Y-121230000D01*
X160591904Y-121230000D02*
X160544285Y-121277619D01*
X160544285Y-121277619D02*
X160496666Y-121230000D01*
X160496666Y-121230000D02*
X160544285Y-121182380D01*
X160544285Y-121182380D02*
X160544285Y-121277619D01*
X159639524Y-122134761D02*
X159734762Y-122182380D01*
X159734762Y-122182380D02*
X159925238Y-122182380D01*
X159925238Y-122182380D02*
X160020476Y-122134761D01*
X160020476Y-122134761D02*
X160068095Y-122087142D01*
X160068095Y-122087142D02*
X160115714Y-121991904D01*
X160115714Y-121991904D02*
X160115714Y-121706190D01*
X160115714Y-121706190D02*
X160068095Y-121610952D01*
X160068095Y-121610952D02*
X160020476Y-121563333D01*
X160020476Y-121563333D02*
X159925238Y-121515714D01*
X159925238Y-121515714D02*
X159734762Y-121515714D01*
X159734762Y-121515714D02*
X159639524Y-121563333D01*
X159210952Y-122182380D02*
X159210952Y-121182380D01*
X159115714Y-121801428D02*
X158830000Y-122182380D01*
X158830000Y-121515714D02*
X159210952Y-121896666D01*
D11*
G36*
X138788096Y-110940722D02*
G01*
X138793621Y-110943650D01*
X138798941Y-110948104D01*
X138804051Y-110954080D01*
X138808946Y-110961572D01*
X138813620Y-110970575D01*
X138818068Y-110981084D01*
X138826268Y-111006599D01*
X138833502Y-111038076D01*
X138839730Y-111075472D01*
X138844910Y-111118747D01*
X138849001Y-111167860D01*
X138851962Y-111222768D01*
X138851977Y-111222768D01*
X138852838Y-111248550D01*
X138853274Y-111273591D01*
X138853294Y-111297869D01*
X138852907Y-111321362D01*
X138852122Y-111344048D01*
X138850948Y-111365904D01*
X138849394Y-111386909D01*
X138847468Y-111407040D01*
X138845179Y-111426274D01*
X138842537Y-111444590D01*
X138839551Y-111461965D01*
X138836228Y-111478377D01*
X138832579Y-111493803D01*
X138828612Y-111508222D01*
X138824336Y-111521610D01*
X138819760Y-111533947D01*
X138814893Y-111545208D01*
X138809743Y-111555373D01*
X138804320Y-111564419D01*
X138798633Y-111572324D01*
X138792690Y-111579065D01*
X138786501Y-111584620D01*
X138780074Y-111588966D01*
X138773418Y-111592083D01*
X138770007Y-111593173D01*
X138766543Y-111593946D01*
X138763025Y-111594401D01*
X138759456Y-111594535D01*
X138755837Y-111594344D01*
X138752168Y-111593826D01*
X138744686Y-111591798D01*
X138737021Y-111588428D01*
X138729180Y-111583693D01*
X138721172Y-111577573D01*
X138713008Y-111570043D01*
X138704997Y-111561395D01*
X138697448Y-111551957D01*
X138683740Y-111530843D01*
X138671892Y-111506961D01*
X138661916Y-111480572D01*
X138653823Y-111451934D01*
X138647624Y-111421308D01*
X138643328Y-111388954D01*
X138640947Y-111355133D01*
X138640491Y-111320103D01*
X138641972Y-111284126D01*
X138645399Y-111247461D01*
X138650784Y-111210368D01*
X138658136Y-111173107D01*
X138667468Y-111135938D01*
X138678789Y-111099122D01*
X138692111Y-111062917D01*
X138707683Y-111026542D01*
X138722705Y-110996542D01*
X138737133Y-110972876D01*
X138744113Y-110963405D01*
X138750928Y-110955502D01*
X138757575Y-110949162D01*
X138764048Y-110944380D01*
X138770342Y-110941150D01*
X138776451Y-110939467D01*
X138782371Y-110939326D01*
X138788096Y-110940722D01*
G37*
X138788096Y-110940722D02*
X138793621Y-110943650D01*
X138798941Y-110948104D01*
X138804051Y-110954080D01*
X138808946Y-110961572D01*
X138813620Y-110970575D01*
X138818068Y-110981084D01*
X138826268Y-111006599D01*
X138833502Y-111038076D01*
X138839730Y-111075472D01*
X138844910Y-111118747D01*
X138849001Y-111167860D01*
X138851962Y-111222768D01*
X138851977Y-111222768D01*
X138852838Y-111248550D01*
X138853274Y-111273591D01*
X138853294Y-111297869D01*
X138852907Y-111321362D01*
X138852122Y-111344048D01*
X138850948Y-111365904D01*
X138849394Y-111386909D01*
X138847468Y-111407040D01*
X138845179Y-111426274D01*
X138842537Y-111444590D01*
X138839551Y-111461965D01*
X138836228Y-111478377D01*
X138832579Y-111493803D01*
X138828612Y-111508222D01*
X138824336Y-111521610D01*
X138819760Y-111533947D01*
X138814893Y-111545208D01*
X138809743Y-111555373D01*
X138804320Y-111564419D01*
X138798633Y-111572324D01*
X138792690Y-111579065D01*
X138786501Y-111584620D01*
X138780074Y-111588966D01*
X138773418Y-111592083D01*
X138770007Y-111593173D01*
X138766543Y-111593946D01*
X138763025Y-111594401D01*
X138759456Y-111594535D01*
X138755837Y-111594344D01*
X138752168Y-111593826D01*
X138744686Y-111591798D01*
X138737021Y-111588428D01*
X138729180Y-111583693D01*
X138721172Y-111577573D01*
X138713008Y-111570043D01*
X138704997Y-111561395D01*
X138697448Y-111551957D01*
X138683740Y-111530843D01*
X138671892Y-111506961D01*
X138661916Y-111480572D01*
X138653823Y-111451934D01*
X138647624Y-111421308D01*
X138643328Y-111388954D01*
X138640947Y-111355133D01*
X138640491Y-111320103D01*
X138641972Y-111284126D01*
X138645399Y-111247461D01*
X138650784Y-111210368D01*
X138658136Y-111173107D01*
X138667468Y-111135938D01*
X138678789Y-111099122D01*
X138692111Y-111062917D01*
X138707683Y-111026542D01*
X138722705Y-110996542D01*
X138737133Y-110972876D01*
X138744113Y-110963405D01*
X138750928Y-110955502D01*
X138757575Y-110949162D01*
X138764048Y-110944380D01*
X138770342Y-110941150D01*
X138776451Y-110939467D01*
X138782371Y-110939326D01*
X138788096Y-110940722D01*
D12*
X181911904Y-120042380D02*
X181911904Y-119042380D01*
X181911904Y-119042380D02*
X181530952Y-119042380D01*
X181530952Y-119042380D02*
X181435714Y-119090000D01*
X181435714Y-119090000D02*
X181388095Y-119137619D01*
X181388095Y-119137619D02*
X181340476Y-119232857D01*
X181340476Y-119232857D02*
X181340476Y-119375714D01*
X181340476Y-119375714D02*
X181388095Y-119470952D01*
X181388095Y-119470952D02*
X181435714Y-119518571D01*
X181435714Y-119518571D02*
X181530952Y-119566190D01*
X181530952Y-119566190D02*
X181911904Y-119566190D01*
X180340476Y-120042380D02*
X180673809Y-119566190D01*
X180911904Y-120042380D02*
X180911904Y-119042380D01*
X180911904Y-119042380D02*
X180530952Y-119042380D01*
X180530952Y-119042380D02*
X180435714Y-119090000D01*
X180435714Y-119090000D02*
X180388095Y-119137619D01*
X180388095Y-119137619D02*
X180340476Y-119232857D01*
X180340476Y-119232857D02*
X180340476Y-119375714D01*
X180340476Y-119375714D02*
X180388095Y-119470952D01*
X180388095Y-119470952D02*
X180435714Y-119518571D01*
X180435714Y-119518571D02*
X180530952Y-119566190D01*
X180530952Y-119566190D02*
X180911904Y-119566190D01*
X179721428Y-119042380D02*
X179530952Y-119042380D01*
X179530952Y-119042380D02*
X179435714Y-119090000D01*
X179435714Y-119090000D02*
X179340476Y-119185238D01*
X179340476Y-119185238D02*
X179292857Y-119375714D01*
X179292857Y-119375714D02*
X179292857Y-119709047D01*
X179292857Y-119709047D02*
X179340476Y-119899523D01*
X179340476Y-119899523D02*
X179435714Y-119994761D01*
X179435714Y-119994761D02*
X179530952Y-120042380D01*
X179530952Y-120042380D02*
X179721428Y-120042380D01*
X179721428Y-120042380D02*
X179816666Y-119994761D01*
X179816666Y-119994761D02*
X179911904Y-119899523D01*
X179911904Y-119899523D02*
X179959523Y-119709047D01*
X179959523Y-119709047D02*
X179959523Y-119375714D01*
X179959523Y-119375714D02*
X179911904Y-119185238D01*
X179911904Y-119185238D02*
X179816666Y-119090000D01*
X179816666Y-119090000D02*
X179721428Y-119042380D01*
X179007142Y-119042380D02*
X178435714Y-119042380D01*
X178721428Y-120042380D02*
X178721428Y-119042380D01*
X177911904Y-119042380D02*
X177721428Y-119042380D01*
X177721428Y-119042380D02*
X177626190Y-119090000D01*
X177626190Y-119090000D02*
X177530952Y-119185238D01*
X177530952Y-119185238D02*
X177483333Y-119375714D01*
X177483333Y-119375714D02*
X177483333Y-119709047D01*
X177483333Y-119709047D02*
X177530952Y-119899523D01*
X177530952Y-119899523D02*
X177626190Y-119994761D01*
X177626190Y-119994761D02*
X177721428Y-120042380D01*
X177721428Y-120042380D02*
X177911904Y-120042380D01*
X177911904Y-120042380D02*
X178007142Y-119994761D01*
X178007142Y-119994761D02*
X178102380Y-119899523D01*
X178102380Y-119899523D02*
X178149999Y-119709047D01*
X178149999Y-119709047D02*
X178149999Y-119375714D01*
X178149999Y-119375714D02*
X178102380Y-119185238D01*
X178102380Y-119185238D02*
X178007142Y-119090000D01*
X178007142Y-119090000D02*
X177911904Y-119042380D01*
X177197618Y-119042380D02*
X176626190Y-119042380D01*
X176911904Y-120042380D02*
X176911904Y-119042380D01*
X176102380Y-119566190D02*
X176102380Y-120042380D01*
X176435713Y-119042380D02*
X176102380Y-119566190D01*
X176102380Y-119566190D02*
X175769047Y-119042380D01*
X175435713Y-120042380D02*
X175435713Y-119042380D01*
X175435713Y-119042380D02*
X175054761Y-119042380D01*
X175054761Y-119042380D02*
X174959523Y-119090000D01*
X174959523Y-119090000D02*
X174911904Y-119137619D01*
X174911904Y-119137619D02*
X174864285Y-119232857D01*
X174864285Y-119232857D02*
X174864285Y-119375714D01*
X174864285Y-119375714D02*
X174911904Y-119470952D01*
X174911904Y-119470952D02*
X174959523Y-119518571D01*
X174959523Y-119518571D02*
X175054761Y-119566190D01*
X175054761Y-119566190D02*
X175435713Y-119566190D01*
X174435713Y-119518571D02*
X174102380Y-119518571D01*
X173959523Y-120042380D02*
X174435713Y-120042380D01*
X174435713Y-120042380D02*
X174435713Y-119042380D01*
X174435713Y-119042380D02*
X173959523Y-119042380D01*
M02*
