M48
; DRILL file {KiCad (7.0.0)} date Fri Dec 29 12:00:22 2023
; FORMAT={-:-/ absolute / metric / decimal}
; #@! TF.CreationDate,2023-12-29T12:00:22-08:00
; #@! TF.GenerationSoftware,Kicad,Pcbnew,(7.0.0)
; #@! TF.FileFunction,Plated,1,2,PTH
FMAT,2
METRIC
; #@! TA.AperFunction,Plated,PTH,ComponentDrill
T1C0.800
; #@! TA.AperFunction,Plated,PTH,ComponentDrill
T2C0.950
; #@! TA.AperFunction,Plated,PTH,ComponentDrill
T3C1.000
%
G90
G05
T1
X131.27Y-113.41
X136.99Y-126.81
X137.08Y-110.88
X137.08Y-114.3
X147.15Y-126.81
X147.24Y-110.88
T2
X157.87Y-109.555
X157.87Y-127.335
X160.41Y-109.555
X160.41Y-127.335
X162.95Y-109.555
X162.95Y-127.335
X165.49Y-109.555
X165.49Y-127.335
X168.03Y-109.555
X168.03Y-127.335
X170.57Y-109.555
X170.57Y-127.335
X173.11Y-109.555
X173.11Y-127.335
X175.65Y-109.555
X175.65Y-127.335
X179.73Y-109.66
X179.73Y-127.44
X182.27Y-109.66
X182.27Y-127.44
X184.81Y-109.66
X184.81Y-127.44
X187.35Y-109.66
X187.35Y-127.44
X189.89Y-109.66
X189.89Y-127.44
X192.43Y-109.66
X192.43Y-127.44
X194.97Y-109.66
X194.97Y-127.44
X197.51Y-109.66
X197.51Y-127.44
T3
X131.13Y-118.8
X136.13Y-118.8
T0
M30
